# xmcd CD database file
#
# Track frame offsets:
#	150
#	17552
#	33990
#	56200
#	64917
#	81422
#	101485
#	118082
#	141922
#	160337
#	183035
#
# Disc length: 2737 seconds
#
# Revision: 5
# Processed by: cddbd v1.5PL3 Copyright (c) Steve Scherf et al.
# Submitted via: CDex 1.50beta8
#
DISCID=940aaf0b
DTITLE=S.E.N,S - 平日の休日。
DYEAR=2001
DGENRE=New Age
TTITLE0=人と時と風の中へ 〜エピローグ〜
TTITLE1=Flowers
TTITLE2=Daydreaming
TTITLE3=Tears
TTITLE4=Peace of Mind
TTITLE5=Fine
TTITLE6=Brightness
TTITLE7=出逢った頃の君でいて
TTITLE8=Rainbow on the Moon
TTITLE9=陽光
TTITLE10=Heaven's Song
EXTD=
EXTT0=
EXTT1=
EXTT2=
EXTT3=
EXTT4=
EXTT5=
EXTT6=
EXTT7=
EXTT8=
EXTT9=
EXTT10=
PLAYORDER=
